<?xml version="1.0" encoding="utf-8"?>
<!-- Generator: Adobe Illustrator 18.1.1, SVG Export Plug-In . SVG Version: 6.00 Build 0)  -->
<svg version="1.1" id="Ebene_1" xmlns="http://www.w3.org/2000/svg" xmlns:xlink="http://www.w3.org/1999/xlink" x="0px" y="0px"
	 viewBox="0 0 34 34" enable-background="new 0 0 34 34" xml:space="preserve">
<path fill="#595958" d="M0,16l16.7,9.8L33.5,16L16.7,7.6L0,16z M9.1,12.8l1.8-0.9l14,7.5l-1.8,1L9.1,12.8z M21.6,21.3l-1.8,1.1
	l-14-7.9l1.8-0.9L21.6,21.3z M12.2,11.2l1.7-0.9l14,7.3l-1.7,1L12.2,11.2z M2.8,16l1.6-0.8l14,8l-1.6,1L2.8,16z M30.7,16l-1.5,0.8
	l-14-7.2l1.5-0.8L30.7,16z"/>
<g>
	<polygon fill="#595958" points="6.8,23 8.8,24.2 8.8,21.8 6.8,20.6 	"/>
	<polygon fill="#595958" points="3,18.4 0,16.6 0,19 3,20.8 	"/>
	<polygon fill="#595958" points="12.5,24 12.5,26.4 16.7,28.8 16.7,26.4 	"/>
</g>
<g>
	<polygon fill="#595958" points="26.7,23 24.7,24.2 24.7,21.8 26.7,20.6 	"/>
	<polygon fill="#595958" points="30.5,18.4 33.5,16.6 33.5,19 30.5,20.8 	"/>
	<polygon fill="#595958" points="20.9,24 20.9,26.4 16.7,28.8 16.7,26.4 	"/>
</g>
</svg>
