<?xml version="1.0" encoding="utf-8"?>
<!-- Generator: Adobe Illustrator 18.1.1, SVG Export Plug-In . SVG Version: 6.00 Build 0)  -->
<svg version="1.1" id="Ebene_1" xmlns="http://www.w3.org/2000/svg" xmlns:xlink="http://www.w3.org/1999/xlink" x="0px" y="0px"
	 viewBox="0 0 34 34" enable-background="new 0 0 34 34" xml:space="preserve">
<g>
	<polygon fill="#595958" points="6.8,21.9 8.7,23 8.7,20.7 6.8,19.5 	"/>
	<polygon fill="#595958" points="3,17.3 0,15.5 0,17.9 3,19.7 	"/>
	<polygon fill="#595958" points="12.5,22.9 12.5,25.3 16.7,27.7 16.7,25.3 	"/>
</g>
<g>
	<polygon fill="#595958" points="26.6,21.9 24.7,23 24.7,20.7 26.6,19.5 	"/>
	<polygon fill="#595958" points="30.4,17.3 33.4,15.5 33.4,17.9 30.4,19.7 	"/>
	<polygon fill="#595958" points="20.9,22.9 20.9,25.3 16.7,27.7 16.7,25.3 	"/>
</g>
<path fill="#595958" d="M33.4,14.9L16.7,6.5L0,14.9l16.7,9.8L33.4,14.9z M16.7,8.5L29.4,15l-0.5,0.3L16.3,8.7L16.7,8.5z M13.9,9.9
	l12.7,6.7l-0.5,0.3l-12.7-6.8L13.9,9.9z M10.8,11.5l12.8,6.9L23,18.7l-12.7-7L10.8,11.5z M7.6,13.1l12.8,7.1l-0.6,0.4L7.1,13.4
	L7.6,13.1z M4.5,14.6L17.3,22l-0.6,0.4L4,15L4.5,14.6z"/>
</svg>
