<?xml version="1.0" encoding="utf-8"?>
<!-- Generator: Adobe Illustrator 18.1.1, SVG Export Plug-In . SVG Version: 6.00 Build 0)  -->
<svg version="1.1" id="Ebene_1" xmlns="http://www.w3.org/2000/svg" xmlns:xlink="http://www.w3.org/1999/xlink" x="0px" y="0px"
	 viewBox="0 0 34 34" enable-background="new 0 0 34 34" xml:space="preserve">
<path fill="#5C5B5B" d="M3.5,21.2c-0.4-0.2-0.8,0-1,0.3c-0.2,0.4,0,0.8,0.3,1l9.3,4.5c0.1-0.5,0.2-1,0.5-1.4L3.5,21.2z"/>
<path fill="#5C5B5B" d="M34,9c0-0.9-0.7-1.6-1.6-1.6l-3.4,0c-0.4,0-0.8,0.2-1.1,0.5c-0.3,0.3-0.4,0.7-0.5,1.1l-2.2,0.1l-6.7,14.3
	c0.5,0.2,0.9,0.4,1.3,0.8l6.4-13.6l1.2-0.1c0.2,0.7,0.8,1.3,1.6,1.3h0l3.4,0c0.4,0,0.8-0.2,1.1-0.5c0.3-0.3,0.5-0.7,0.5-1.1L34,9z
	 M32.5,10.2C32.5,10.2,32.4,10.2,32.5,10.2L29,10.3h0c-0.1,0-0.1,0-0.1-0.1l0-1.1c0,0,0-0.1,0-0.1c0,0,0,0,0.1,0l3.4,0
	c0.1,0,0.1,0.1,0.1,0.1L32.5,10.2C32.5,10.2,32.5,10.2,32.5,10.2"/>
<path fill="#5C5B5B" d="M8.1,4.8L1.5,18.9l11.9,5.6c0.4-0.4,0.9-0.8,1.4-1L3.5,18.2L8.9,6.8l3.8,1.8l-2.1,4.6l4.2,1.9l2.1-4.5
	l3.7,1.8l-5.2,11c0.4-0.1,0.9-0.2,1.4-0.2c0.1,0,0.2,0,0.3,0l5.4-11.5L8.1,4.8z M14,13.1l-1.4-0.7l1.5-3.2l1.4,0.7L14,13.1z"/>
<path fill="#5C5B5B" d="M16.8,31.2c-0.1,0-0.3,0-0.4,0c-1.9-0.2-3.2-1.9-3-3.8c0.2-1.8,1.9-3.2,3.8-3c1.9,0.2,3.2,1.9,3,3.8
	C19.9,29.9,18.5,31.2,16.8,31.2 M16.8,25.9c-0.9,0-1.7,0.7-1.9,1.7c-0.1,1,0.6,2,1.6,2.1c1,0.1,2-0.6,2.1-1.6c0.1-1-0.6-2-1.6-2.1
	C16.9,25.9,16.9,25.9,16.8,25.9"/>
</svg>
