<?xml version="1.0" encoding="utf-8"?>
<!-- Generator: Adobe Illustrator 25.2.2, SVG Export Plug-In . SVG Version: 6.00 Build 0)  -->
<svg version="1.1" id="b15325d2-ef49-41bb-b39b-b88ff27f55f0"
	 xmlns="http://www.w3.org/2000/svg" xmlns:xlink="http://www.w3.org/1999/xlink" x="0px" y="0px" viewBox="0 0 703.7 582.7"
	 style="enable-background:new 0 0 703.7 582.7;" xml:space="preserve">
<style type="text/css">
	.st0{opacity:0.1;fill:#5B6B8F;}
	.st1{fill:#CBCBCB;}
	.st2{fill:#FFFFFF;}
	.st3{fill:#3F3D56;}
	.st4{fill:#F2F2F2;}
	.st5{fill:#FF6900;}
	.st6{fill:#CCCCCC;}
	.st7{fill:#FFB7B7;}
	.st8{fill:#CCCBCB;}
	.st9{fill:#65617D;}
	.st10{fill:#D0CDE1;}
	.st11{fill:#4C4B5C;}
	.st12{fill:#9F616A;}
	.st13{fill:#F1F1F1;}
	.st14{opacity:0.2;enable-background:new    ;}
	.st15{fill:#9292A0;}
	.st16{fill:#BFBFBF;}
	.st17{opacity:0.1;enable-background:new    ;}
</style>
<path class="st0" d="M151.3,144.6c-3.6,1.5-7.2,3.4-9.2,6.7c-2.1,3.5-1.8,7.9-1.4,12c3.4,35.3,12.2,72.8-3.1,104.8
	c-7.4,15.5-19.9,27.9-29.8,42s-17.4,31.7-12.8,48.2c5.6,20.2,26.5,31.5,40.7,47c9.2,10.2,15.7,22.6,24.3,33.3s20.4,20.2,34.2,20.8
	c19.8,0.9,35.9-16.2,55.3-20.1c19.9-4.1,39.9,6.3,56,18.6c16.1,12.3,30.8,27.3,49.5,35c20.7,8.5,44.1,7.2,65.9,12.3
	c19.9,4.7,38.2,14.6,57.9,19.9c19.7,5.3,42.9,5,58.1-8.5c19.9-17.7,18.4-49.1,31.1-72.5c11.8-21.7,35-34.7,50.5-53.9
	c28-34.5,27.1-87.4,3.3-124.9s-66.9-60.3-111-66.3c-19.9-2.7-40.3-2.3-59.4-8.4c-51.1-16.2-81.6-74.4-133.8-86.5
	c-33.2-7.7-65.5,5.6-93.7,22C199.5,140.3,176.9,134,151.3,144.6z"/>
<path id="Pfad_7814" class="st1" d="M601.3,552.2v-52C601.3,500.2,621.6,537.1,601.3,552.2z"/>
<path id="Pfad_7815" class="st1" d="M602.6,552.2L564.3,517C564.3,517,605.1,527,602.6,552.2z"/>
<path id="Pfad_7816" class="st2" d="M467.5,263.8L264.4,382.5c-1.5,0.9-3.4,0.4-4.2-1.1L129.4,157.8c-0.9-1.5-0.4-3.4,1.1-4.2
	L333.7,34.8c1.5-0.9,3.4-0.4,4.2,1.1l130.7,223.6C469.5,261,469,262.9,467.5,263.8z"/>
<path id="Pfad_7817" class="st3" d="M467.5,263.8L264.4,382.5c-1.5,0.9-3.4,0.4-4.2-1.1L129.4,157.8c-0.9-1.5-0.4-3.4,1.1-4.2
	L333.7,34.8c1.5-0.9,3.4-0.4,4.2,1.1l130.7,223.6C469.5,261,469,262.9,467.5,263.8z M131.2,154.7c-0.9,0.5-1.2,1.7-0.7,2.5
	l130.7,223.6c0.5,0.9,1.7,1.2,2.5,0.7l203.2-118.8c0.9-0.5,1.2-1.7,0.7-2.5L336.9,36.6c-0.5-0.9-1.7-1.2-2.5-0.7L131.2,154.7z"/>
<path id="Pfad_7818" class="st4" d="M261.8,176.9l-50.4,29.5c-1.5,0.9-3.4,0.4-4.2-1.1l-29.5-50.4c-0.9-1.5-0.4-3.4,1.1-4.2
	l50.4-29.5c1.5-0.9,3.4-0.4,4.2,1.1l29.5,50.4C263.8,174.2,263.3,176.1,261.8,176.9z M179.4,151.7c-0.9,0.5-1.2,1.7-0.7,2.5
	l29.5,50.4c0.5,0.9,1.7,1.2,2.5,0.7l50.4-29.5c0.9-0.5,1.2-1.7,0.7-2.5l-29.5-50.4c-0.5-0.9-1.7-1.2-2.5-0.7L179.4,151.7z"/>
<path id="Pfad_7819" class="st5" d="M250.9,191.6L200.5,221c-1.3,0.8-3,0.3-3.8-1l-29.5-50.4c-0.8-1.3-0.3-3,1-3.8l50.4-29.5
	c1.3-0.8,3-0.3,3.8,1l29.5,50.4C252.7,189.1,252.3,190.8,250.9,191.6z"/>
<path id="Pfad_7820" class="st6" d="M372.6,153.5l-157.6,92.1c-1.3,0.8-3,0.3-3.8-1s-0.3-3,1-3.8l157.6-92.1c1.3-0.8,3-0.3,3.8,1
	C374.3,151.1,373.9,152.8,372.6,153.5L372.6,153.5z"/>
<path id="Pfad_7821" class="st6" d="M344.2,192.4l-119.6,69.9c-1.3,0.8-3,0.3-3.8-1s-0.3-3,1-3.8l0,0l119.5-69.9
	c1.3-0.8,3-0.3,3.8,1S345.5,191.6,344.2,192.4L344.2,192.4L344.2,192.4z"/>
<path id="Pfad_7822" class="st6" d="M336.3,92.7l-69.7,40.7c-1.3,0.8-3,0.3-3.8-1c-0.8-1.3-0.3-3,1-3.8l69.7-40.7
	c1.3-0.8,3-0.3,3.8,1C338.1,90.3,337.6,92,336.3,92.7L336.3,92.7L336.3,92.7z"/>
<path id="Pfad_7823" class="st6" d="M328.6,119.5l-52.3,30.6c-1.3,0.8-3,0.3-3.8-1c-0.8-1.3-0.3-3,1-3.8l0,0l52.3-30.6
	c1.3-0.8,3-0.3,3.8,1C330.4,117,330,118.8,328.6,119.5L328.6,119.5z"/>
<path id="Pfad_7824" class="st6" d="M392,186.8l-157.6,92.1c-1.3,0.8-3,0.3-3.8-1s-0.3-3,1-3.8L389.2,182c1.3-0.8,3-0.3,3.8,1
	S393.3,186,392,186.8L392,186.8L392,186.8z"/>
<path id="Pfad_7825" class="st6" d="M363.6,225.7l-119.5,69.9c-1.3,0.8-3,0.3-3.8-1s-0.3-3,1-3.8l119.5-69.9c1.3-0.8,3-0.3,3.8,1
	S365,224.9,363.6,225.7L363.6,225.7L363.6,225.7z"/>
<path id="Pfad_7826" class="st6" d="M411.4,220l-157.6,92.1c-1.3,0.8-3,0.3-3.8-1s-0.3-3,1-3.8l157.6-92.1c1.3-0.8,3-0.3,3.8,1
	S412.7,219.2,411.4,220L411.4,220L411.4,220z"/>
<path id="Pfad_7827" class="st6" d="M421.1,236.6l-157.6,92.1c-1.3,0.8-3,0.3-3.8-1s-0.3-3,1-3.8l0,0l157.6-92.1
	c1.3-0.8,3-0.3,3.8,1S422.5,235.9,421.1,236.6L421.1,236.6L421.1,236.6z"/>
<path id="Pfad_7828" class="st5" d="M370.2,301.3c2.2-2.6,4.2-5.3,5.9-8.2c1.6-2.6,3.1-5.4,3.4-8.5c0.4-2.7-0.6-5.3-2.5-7.2
	c-1.9-1.7-4.7-2.1-6.9-0.8c-2.2,1.3-3.6,3.7-3.5,6.3c0.2,2.8,1.6,5.4,4,7.1c4.7,3.4,11.9,3.2,16.9,0.6c5.6-2.9,8.5-10.5,4.1-15.6
	c-0.9-1.1-2.4,0.1-2.2,1.3c0.6,3.4,3.9,5.7,7.3,5c3.1-0.6,5.3-3.4,5.1-6.6l-2,1.2c4.9,2.2,10.6,1.6,15-1.6c1.1-0.8,2-1.7,2.8-2.7
	c1-1.3,2.6-2.1,3.9-3l9.5-6.5c1.4-1,0.1-3.3-1.3-2.3l-8.6,5.9c-1.4,1-2.9,2-4.3,3c-0.9,0.9-1.8,1.8-2.6,2.7
	c-3.6,3.2-8.7,4.1-13.1,2.2c-0.7-0.4-1.5-0.1-1.8,0.5c-0.1,0.2-0.2,0.4-0.2,0.6c0.3,2-1.1,3.8-3,4.1s-3.8-1.1-4.1-3
	c0-0.1,0-0.2,0-0.2l-2.2,1.3c2.8,3.3,0.9,8.5-2.3,10.7c-3.9,2.5-8.8,3-13.2,1.4c-2-0.7-3.7-2.2-4.6-4.2c-0.8-1.8-0.4-3.9,1-5.3
	c1.3-1.3,3.3-1.3,4.6,0c1.4,1.4,2,3.4,1.6,5.4c-0.4,2.7-1.9,5.1-3.3,7.4c-1.6,2.6-3.3,5-5.3,7.3
	C367.2,300.8,369.1,302.6,370.2,301.3L370.2,301.3z"/>
<path id="Pfad_7829" class="st7" d="M393.7,364.3c0.2,0.2,0.4,0.5,0.6,0.8l29.3-0.7l3.4-6.3l10.1,3.9l-5,11.7
	c-0.8,1.9-2.8,3.1-4.9,2.8l-33.2-4c-2.1,2.7-6,3.2-8.7,1c-2.7-2.1-3.2-6-1-8.7c2.1-2.7,6-3.2,8.7-1
	C393.3,364,393.5,364.2,393.7,364.3L393.7,364.3z"/>
<path id="Pfad_7830" class="st7" d="M489.4,542.6h-9.6l-4.6-37.2h14.2L489.4,542.6z"/>
<path id="Pfad_7831" class="st8" d="M491.8,551.9h-31.1v-0.4c0-6.7,5.4-12.1,12.1-12.1h19L491.8,551.9z"/>
<path id="Pfad_7832" class="st7" d="M401.7,542.4l-8.9-3.8l10.4-36l13.1,5.6L401.7,542.4z"/>
<path id="Pfad_7833" class="st8" d="M400.3,551.9l-28.6-12.2l0.2-0.4c2.6-6.2,9.7-9,15.9-6.4c0,0,0,0,0,0l0,0l17.5,7.5L400.3,551.9z
	"/>
<path id="Pfad_7834" class="st7" d="M442.4,372.4l-0.7,11.3l20.4,2.2l21.3,2.3l-6.3-17.2L442.4,372.4z"/>
<path id="Pfad_7837" class="st9" d="M408.9,535.8l-18.6-3.8l29.7-82l10.2-28c0,0,6.5-22.4,9.4-31.1l1.8-11.6l41.6,4.6
	c0,0,11.6,17.1,8.1,44.9l1.6,104.6l-18.6,1l-15.6-105.5l-27.3,57.9c0,0-8.6,24.7-14.8,30L408.9,535.8z"/>
<path id="Pfad_7835" class="st10" d="M441.1,383.9l-7.9-55.2l13.7-4.5l4-5.5l19.6,1.2l2.9,6.5l10.5,4.9l-1.6,29.9l1.2,25
	L441.1,383.9z"/>
<path id="Pfad_7836" class="st10" d="M436.1,369.1l-14-5.6l0.1-0.2c0.1-0.3,6-25.1,6.8-29.1c0.3-2.3,1.8-4.4,4-5.4l0.1,0l5.5,1.7
	l2.4,19.1L436.1,369.1z"/>
<path id="Pfad_7838" class="st7" d="M466.3,387.8c0.3,0,0.7,0,1,0.1l19.4-22l-2.3-6.8l9.8-4.7l5.2,11.6c0.9,1.9,0.3,4.2-1.3,5.5
	L472.6,393c0.5,3.4-1.8,6.6-5.2,7.1c-3.4,0.5-6.6-1.8-7.1-5.2c-0.5-3.4,1.8-6.6,5.2-7.1C465.8,387.8,466,387.8,466.3,387.8
	L466.3,387.8z"/>
<path id="Pfad_7839" class="st10" d="M485.1,367.9l-8.1-19.1l3.2-13.3l3.4-4.3c0.5-0.2,1.1-0.2,1.6,0c1.3,0.5,2.3,2.1,3.2,4.6
	l7.6,21.6L485.1,367.9z"/>
<path id="Pfad_7840" class="st11" d="M443.1,311.5v-14.4c0-10.6,8.6-19.3,19.3-19.3c10.6,0,19.3,8.6,19.3,19.3v14.4
	c0,1.4-1.2,2.6-2.6,2.6h-33.3C444.2,314.1,443.1,312.9,443.1,311.5z"/>
<circle id="Ellipse_42" class="st7" cx="458.4" cy="299.6" r="14.1"/>
<path id="Pfad_7841" class="st11" d="M438.5,298.3c0-8.4,6.8-15.2,15.2-15.2h2.9c8.4,0,15.2,6.8,15.2,15.2v0.3h-6.1l-2.1-5.8
	l-0.4,5.8h-3.1l-1-2.9l-0.2,2.9h-20.4V298.3z"/>
<path id="Pfad_7842" class="st11" d="M457,315.7c-0.6-0.8-0.7-1.8-0.2-2.7c3-5.8,7.3-16.5,1.7-23.1l-0.4-0.5h16.4v24.7l-14.9,2.6
	c-0.2,0-0.3,0-0.5,0C458.3,316.8,457.5,316.4,457,315.7L457,315.7z"/>
<path id="Pfad_7843" class="st12" d="M265.3,534.5l8.7,3.1l16.2-32.2l-12.9-4.6L265.3,534.5z"/>
<path id="Pfad_7844" class="st8" d="M260,542.1l4-11.3l17.2,6.1c6,2.2,9.2,8.8,7,14.9l-0.1,0.4L260,542.1z"/>
<path id="Pfad_7845" class="st12" d="M322,543.1h9.3l4.4-35.7H322L322,543.1z"/>
<path id="Pfad_7846" class="st8" d="M319.6,540.1h18.2c6.4,0,11.6,5.2,11.6,11.6v0v0.4h-29.9V540.1z"/>
<path id="Pfad_7847" class="st13" d="M300.9,314.9l4-8c0,0,15,3.8,16.4,12.5L300.9,314.9z"/>
<path id="Pfad_7848" class="st11" d="M284.3,405.9l11,61.1l-29.1,51.4l17.4,6.8l29.5-49.9l3.8-13.6l2.3,71l15.7-0.5l7.2-66.3
	l-11.5-61.6L284.3,405.9z"/>
<path id="Pfad_7849" class="st3" d="M305.1,420.3c-16.1,0-26.3-3.1-26.5-3.1l-0.4-0.1l8.4-38.9l0.4-35.8c0-15.2,10-26.4,11.4-27.4
	c0.5-1.9,1.7-3.4,3.5-4.3c3.3-1.5,7.4,0.3,7.6,0.4l12.2,4.6l0.1,0.2c0.1,0.4,16.3,53.3,16.3,53.3s-1,46.2-1.3,47.7
	C336.6,416.9,314,420.3,305.1,420.3z"/>
<circle id="Ellipse_43" class="st12" cx="317.4" cy="287.9" r="16.5"/>
<path id="Pfad_7850" class="st14" d="M299,345.3l28.9,40.4l4.3-18.8L299,345.3z"/>
<path id="Pfad_7851" class="st12" d="M389.7,372.8c-3.1,2.4-7.5,1.9-10-1.2c-0.3-0.3-0.5-0.7-0.7-1l-24.9,4l5.4-11.9l22.8-2
	c3.6-1.6,7.8,0,9.4,3.5C393.1,367.2,392.3,370.8,389.7,372.8L389.7,372.8z"/>
<path id="Pfad_7852" class="st13" d="M360.8,361.9l8.9-0.9l2.5,12.5l-11.3,0.2L360.8,361.9z"/>
<path id="Pfad_7853" class="st3" d="M368.1,377.9l-43.8-3.9l-22.1-35.2l-0.1-0.3c-1.4-6.5,2.7-13,9.2-14.4
	c5.4-1.2,10.9,1.4,13.4,6.3l13,25.3l26.2,4L368.1,377.9z"/>
<path id="Pfad_7854" class="st11" d="M303.4,302.2l13.7,0.5c0.8,0,3.1-9,3.4-10.9c0.5-2.5,2.8-4.3,5.3-4.1c1,0.1,3.6-1.8,6.3-4.1
	c4.3-3.6,4.9-9.9,1.3-14.2c-0.6-0.7-1.3-1.3-2.1-1.9c-0.2-0.1-0.3-0.2-0.4-0.3c-3.6-1.8-7.6-2.8-11.7-2.7c-3.7-0.2-7.3,0.5-10.6,2.1
	c-5.8,3.1-8.8,9.9-9.1,16.4s1.8,12.9,4.2,19"/>
<path id="Pfad_7855" class="st1" d="M647.3,552.7H113c-0.4,0-0.7-0.3-0.7-0.7c0-0.4,0.3-0.7,0.7-0.7h534.6c0.4,0,0.7,0.3,0.7,0.7
	c0,0,0,0,0,0C648.3,552.4,647.7,552.7,647.3,552.7z"/>
<rect id="Rechteck_2743" x="86.9" y="495.8" class="st15" width="69.7" height="56.2"/>
<rect id="Rechteck_2745" x="132.9" y="477.9" class="st16" width="92" height="74.1"/>
<rect id="Rechteck_2747" x="108.5" y="404.2" class="st15" width="92" height="74.1"/>
<rect id="Rechteck_2746" x="166.3" y="531" class="st5" width="15.6" height="21.1"/>
<rect id="Rechteck_2748" x="146.8" y="404.2" class="st5" width="15.6" height="21.1"/>
<path id="Pfad_7656" class="st5" d="M180.7,493.1l2-5.3l18.7-10.7l12.7-2.7L180.7,493.1z"/>
<path id="Pfad_7657" class="st5" d="M111.9,493.1l-2-5.3L91.1,477l-12.7-2.7L111.9,493.1z"/>
<path id="Pfad_7658" class="st5" d="M182.1,494.4h-71.5l-6-28.1h83.6L182.1,494.4z"/>
<path id="Pfad_7659" class="st17" d="M182.1,494.4h-71.5l-6-28.1h83.6L182.1,494.4z"/>
<rect id="Rechteck_2635" x="110.2" y="492.7" class="st5" width="72.2" height="59.3"/>
<rect id="Rechteck_2636" x="140.4" y="534.9" class="st2" width="12.2" height="17.2"/>
</svg>
