<?xml version="1.0" encoding="utf-8"?>
<!-- Generator: Adobe Illustrator 25.2.2, SVG Export Plug-In . SVG Version: 6.00 Build 0)  -->
<svg version="1.1" id="b15325d2-ef49-41bb-b39b-b88ff27f55f0"
	 xmlns="http://www.w3.org/2000/svg" xmlns:xlink="http://www.w3.org/1999/xlink" x="0px" y="0px" viewBox="0 0 703.7 582.7"
	 style="enable-background:new 0 0 703.7 582.7;" xml:space="preserve">
<style type="text/css">
	.st0{opacity:0.1;fill:#FFFFFF;}
	.st1{fill:#E6E6E8;}
	.st2{fill:#9292A0;}
	.st3{fill:#FF6900;}
	.st4{fill:url(#Pfad_8307_1_);}
	.st5{fill:#E6E6E6;}
	.st6{fill:#F6F7F9;}
	.st7{opacity:0.1;enable-background:new    ;}
	.st8{fill:#FFFFFF;}
	.st9{opacity:0.2;}
	.st10{fill:#DCE0ED;}
	.st11{fill:url(#Pfad_8311_1_);}
	.st12{fill:#65617D;}
	.st13{fill:#CCCBCB;}
	.st14{fill:#FBBEBE;}
	.st15{opacity:5.000000e-02;enable-background:new    ;}
	.st16{fill:#7C5C5C;}
	.st17{opacity:0.1;}
</style>
<path class="st0" d="M154.5,120.9c-3.6,1.5-7.2,3.4-9.2,6.7c-2.1,3.5-1.8,7.9-1.4,12c3.4,35.3,12.2,72.8-3.1,104.8
	c-7.4,15.5-19.9,27.9-29.8,42S93.7,318,98.3,334.6c5.6,20.2,26.5,31.5,40.7,47c9.2,10.2,15.7,22.6,24.3,33.3
	c8.6,10.7,20.4,20.2,34.2,20.8c19.8,0.9,35.9-16.2,55.3-20.1c19.9-4.1,39.9,6.3,56,18.6c16.1,12.3,30.8,27.3,49.5,35
	c20.7,8.5,44.1,7.2,65.9,12.3c19.9,4.7,38.2,14.6,57.9,19.9s42.9,5,58.1-8.5c19.9-17.7,18.4-49.1,31.1-72.5
	c11.8-21.7,35-34.7,50.5-53.9c28-34.5,27.1-87.4,3.3-124.9s-66.9-60.3-111-66.3c-19.9-2.7-40.3-2.3-59.4-8.4
	c-51.1-16.2-81.6-74.4-133.8-86.5c-33.2-7.7-65.5,5.6-93.7,22C202.7,116.6,180.1,110.3,154.5,120.9z"/>
<ellipse id="Ellipse_111" class="st1" cx="555.3" cy="486.3" rx="69" ry="7"/>
<rect id="Rechteck_2638" x="83.3" y="427.6" class="st2" width="69.7" height="56.2"/>
<rect id="Rechteck_2639" x="108.6" y="467.5" class="st3" width="11.8" height="16"/>
<linearGradient id="Pfad_8307_1_" gradientUnits="userSpaceOnUse" x1="-160.9271" y1="743.3784" x2="-160.9271" y2="744.3784" gradientTransform="matrix(280.733 0 0 -372.0301 45518.9688 277024.5)">
	<stop  offset="0" style="stop-color:#808080;stop-opacity:0.251"/>
	<stop  offset="0.54" style="stop-color:#808080;stop-opacity:0.122"/>
	<stop  offset="1" style="stop-color:#808080;stop-opacity:0.102"/>
</linearGradient>
<path id="Pfad_8307" class="st4" d="M460,93.4H222.8c-12,0-21.7,9.7-21.8,21.7c0,0,0,0,0,0v328.7c0,12,9.8,21.7,21.8,21.7H460
	c12,0,21.7-9.7,21.8-21.7c0,0,0,0,0,0V115C481.8,103.1,472,93.3,460,93.4C460,93.4,460,93.4,460,93.4z"/>
<path id="Rechteck_2706" class="st5" d="M224.4,97.8h234c11,0,20,9,20,20v324.2c0,11-9,20-20,20h-234c-11,0-20-9-20-20V117.8
	C204.4,106.8,213.4,97.8,224.4,97.8z"/>
<rect id="Rechteck_2707" x="218.3" y="132.3" class="st6" width="246.2" height="295.3"/>
<g id="Gruppe_6224" transform="translate(-9.637 318.379)">
	<path id="Pfad_7656" class="st3" d="M215.5,104.6l2.2-5.8l20.2-11.6l13.7-2.9L215.5,104.6z"/>
	<path id="Pfad_7657" class="st3" d="M141.1,104.6l-2.2-5.8l-20.2-11.6L105,84.4L141.1,104.6z"/>
	<path id="Pfad_7658" class="st3" d="M217,106h-77.3l-6.5-30.4h90.3L217,106z"/>
	<path id="Pfad_7659" class="st7" d="M217,106h-77.3l-6.5-30.4h90.3L217,106z"/>
	<rect id="Rechteck_2635" x="139.3" y="104.2" class="st3" width="78.1" height="64.1"/>
	<rect id="Rechteck_2636" x="171.9" y="149.3" class="st8" width="13.1" height="18.6"/>
</g>
<circle id="Ellipse_105" class="st6" cx="340.3" cy="114.5" r="3.3"/>
<circle id="Ellipse_106" class="st6" cx="340.3" cy="444.2" r="10"/>
<g id="Gruppe_6196" transform="translate(113.375 56.585)" class="st9">
	<rect id="Rechteck_2708" x="105" y="75.7" class="st3" width="246.2" height="14.7"/>
</g>
<circle id="Ellipse_107" class="st6" cx="226" cy="139.6" r="3.1"/>
<circle id="Ellipse_108" class="st6" cx="234" cy="139.6" r="3.1"/>
<circle id="Ellipse_109" class="st6" cx="242" cy="139.6" r="3.1"/>
<rect id="Rechteck_2709" x="225.7" y="219.1" class="st10" width="229.2" height="0.8"/>
<rect id="Rechteck_2710" x="225.7" y="236.9" class="st10" width="229.2" height="0.8"/>
<rect id="Rechteck_2711" x="225.7" y="254.7" class="st10" width="229.2" height="0.8"/>
<rect id="Rechteck_2712" x="225.7" y="272.4" class="st10" width="229.2" height="0.8"/>
<rect id="Rechteck_2713" x="225.7" y="290.2" class="st10" width="229.2" height="0.8"/>
<g id="Gruppe_6197" transform="translate(120.446 154.254)" class="st9">
	<path id="Pfad_8308" class="st3" d="M334.5,136.7H105v-35l21,10.4l21.8,3l19.1-5.8L190,91.4l11.6-6.7l8.5-1.6l8.1,0.4l13.3,6.6
		l18.1,11.6l14.2,1.8l11.3-3.9L299.1,80l12.2-4.4l12.8,2l10.4,6V136.7z"/>
</g>
<path id="Pfad_8309" class="st3" d="M265.4,269.3c-20.7,0-39.8-12.6-40-12.8l0.6-0.8c0.3,0.2,29.7,19.6,54.7,9.9
	c9.1-3.6,15.6-9.1,21.9-14.4c6.5-5.6,12.7-10.8,21.2-13.1c9.9-2.6,20.4-0.2,28.3,6.4c6.9,5.6,20.5,14.7,35,12
	c7.4-1.4,13.6-6.8,20.1-12.5c12.6-10.9,25.6-22.2,48.2-6l-0.6,0.8c-21.9-15.7-34.6-4.7-46.9,6c-6.7,5.8-13,11.2-20.6,12.7
	c-14.9,2.8-28.8-6.5-35.8-12.2c-7.6-6.3-17.8-8.6-27.4-6.2c-8.2,2.2-14.3,7.4-20.8,12.9c-6.3,5.4-12.9,11-22.2,14.6
	C276,268.4,270.7,269.4,265.4,269.3L265.4,269.3z"/>
<circle id="Ellipse_110" class="st3" cx="336" cy="237.3" r="5.7"/>
<g id="Gruppe_6198" transform="translate(232.313 86.437)" class="st9">
	<path id="Pfad_8310" class="st3" d="M177.8,75.7h-71.7c-0.6,0-1.2,0.5-1.2,1.2l0,0v48.5c0,0.6,0.5,1.2,1.2,1.2
		c0.3,0,0.6-0.1,0.9-0.4l12.4-13.2c0.2-0.2,0.5-0.4,0.8-0.4h57.6c0.6,0,1.2-0.5,1.2-1.2l0,0V76.8C179,76.2,178.5,75.7,177.8,75.7z"
		/>
</g>
<rect id="Rechteck_2714" x="353.9" y="171.1" class="st6" width="40.8" height="5.1"/>
<rect id="Rechteck_2715" x="353.9" y="182.4" class="st6" width="11.2" height="5.1"/>
<g id="Gruppe_6199" transform="translate(140.087 251.841)" class="st9">
	<rect id="Rechteck_2716" x="105" y="75.7" class="st3" width="11.2" height="5.1"/>
</g>
<g id="Gruppe_6200" transform="translate(140.087 261.71)" class="st9">
	<rect id="Rechteck_2717" x="105" y="75.7" class="st3" width="11.2" height="5.1"/>
</g>
<g id="Gruppe_6201" transform="translate(140.087 271.579)" class="st9">
	<rect id="Rechteck_2718" x="105" y="75.7" class="st3" width="11.2" height="5.1"/>
</g>
<g id="Gruppe_6202" transform="translate(140.087 281.453)" class="st9">
	<rect id="Rechteck_2719" x="105" y="75.7" class="st3" width="11.2" height="5.1"/>
</g>
<g id="Gruppe_6203" transform="translate(140.087 291.322)" class="st9">
	<rect id="Rechteck_2720" x="105" y="75.7" class="st3" width="11.2" height="5.1"/>
</g>
<g id="Gruppe_6204" transform="translate(140.087 301.191)" class="st9">
	<rect id="Rechteck_2721" x="105" y="75.7" class="st3" width="11.2" height="5.1"/>
</g>
<g id="Gruppe_6205" transform="translate(140.087 311.065)" class="st9">
	<rect id="Rechteck_2722" x="105" y="75.7" class="st3" width="11.2" height="5.1"/>
</g>
<g id="Gruppe_6206" transform="translate(140.087 320.934)" class="st9">
	<rect id="Rechteck_2723" x="105" y="75.7" class="st3" width="11.2" height="5.1"/>
</g>
<g id="Gruppe_6207" transform="translate(161.188 326.04)" class="st9">
	<rect id="Rechteck_2724" x="105" y="75.7" class="st3" width="11.2" height="5.1"/>
</g>
<g id="Gruppe_6208" transform="translate(180.931 326.04)" class="st9">
	<rect id="Rechteck_2725" x="105" y="75.7" class="st3" width="11.2" height="5.1"/>
</g>
<g id="Gruppe_6209" transform="translate(200.674 326.04)" class="st9">
	<rect id="Rechteck_2726" x="105" y="75.7" class="st3" width="11.2" height="5.1"/>
</g>
<g id="Gruppe_6210" transform="translate(220.412 326.04)" class="st9">
	<rect id="Rechteck_2727" x="105" y="75.7" class="st3" width="11.2" height="5.1"/>
</g>
<g id="Gruppe_6211" transform="translate(240.155 326.04)" class="st9">
	<rect id="Rechteck_2728" x="105" y="75.7" class="st3" width="11.2" height="5.1"/>
</g>
<g id="Gruppe_6212" transform="translate(259.899 326.04)" class="st9">
	<rect id="Rechteck_2729" x="105" y="75.7" class="st3" width="11.2" height="5.1"/>
</g>
<g id="Gruppe_6213" transform="translate(279.637 326.04)" class="st9">
	<rect id="Rechteck_2730" x="105" y="75.7" class="st3" width="11.2" height="5.1"/>
</g>
<g id="Gruppe_6214" transform="translate(299.38 326.04)" class="st9">
	<rect id="Rechteck_2731" x="105" y="75.7" class="st3" width="11.2" height="5.1"/>
</g>
<g id="Gruppe_6215" transform="translate(319.123 326.04)" class="st9">
	<rect id="Rechteck_2732" x="105" y="75.7" class="st3" width="11.2" height="5.1"/>
</g>
<rect id="Rechteck_2733" x="377.7" y="182.4" class="st6" width="17" height="5.1"/>
<rect id="Rechteck_2734" x="266.2" y="364.6" class="st3" width="11.2" height="32"/>
<rect id="Rechteck_2735" x="285.9" y="349.8" class="st3" width="11.2" height="46.8"/>
<rect id="Rechteck_2736" x="305.6" y="337.4" class="st3" width="11.2" height="59.2"/>
<rect id="Rechteck_2737" x="325.4" y="343.8" class="st3" width="11.2" height="52.8"/>
<rect id="Rechteck_2738" x="345.1" y="332.6" class="st3" width="11.2" height="64"/>
<g id="Gruppe_6216" transform="translate(259.899 281.453)" class="st9">
	<rect id="Rechteck_2739" x="105" y="75.7" class="st3" width="11.2" height="39.5"/>
</g>
<g id="Gruppe_6217" transform="translate(279.637 281.453)" class="st9">
	<rect id="Rechteck_2740" x="105" y="75.7" class="st3" width="11.2" height="39.5"/>
</g>
<g id="Gruppe_6218" transform="translate(299.38 281.453)" class="st9">
	<rect id="Rechteck_2741" x="105" y="75.7" class="st3" width="11.2" height="39.5"/>
</g>
<g id="Gruppe_6219" transform="translate(319.123 281.453)" class="st9">
	<rect id="Rechteck_2742" x="105" y="75.7" class="st3" width="11.2" height="39.5"/>
</g>
<linearGradient id="Pfad_8311_1_" gradientUnits="userSpaceOnUse" x1="-159.7371" y1="743.325" x2="-159.7371" y2="744.325" gradientTransform="matrix(118.9414 0 0 -336.8867 19559.1719 250903)">
	<stop  offset="0" style="stop-color:#808080;stop-opacity:0.251"/>
	<stop  offset="0.54" style="stop-color:#808080;stop-opacity:0.122"/>
	<stop  offset="1" style="stop-color:#808080;stop-opacity:0.102"/>
</linearGradient>
<path id="Pfad_8311" class="st11" d="M610.1,214.3c-12.1-7-16.7-8.7-16.7-8.7l-0.2-0.2c-1.3-1-2.4-2.3-3.1-3.9c0-0.3,0-0.6,0-0.8
	v0.1c0.2-3.7,2.8-7.1,5.3-10l6.4-7.5c0.7-0.7,1.3-1.6,1.6-2.6c0.1-0.5,0.2-1.1,0.2-1.6v-0.7c0-1.9-0.1-3.7-0.2-5.6
	c-0.1-1.6-0.5-3.7-2.1-4c-0.8-0.2-2,0.1-2.4-0.6c-0.2-0.3-0.2-0.6-0.1-1c0,0,0,0.1,0,0.1v-0.1c0.3-1.3,0.5-2.5,0.6-3.8
	c0-0.7-0.1-1.3-0.3-1.9c-0.9-2.7-4.2-3.8-7.1-4.3s-6.1-0.9-7.9-3.2c-0.5-0.7-1-1.5-1.6-2.2c-0.8-0.7-1.8-1.2-2.9-1.4
	c-3.6-0.9-7.3-0.6-10.7,0.9c-1.4,0.6-2.8,1.5-4.3,1.4s-2.9-1.2-4.5-1.5c-2.5-0.4-4.9,1.4-6.2,3.6c-0.7,1.3-1.1,2.8-1.1,4.3v0.2l0,0
	c0,1.6,0.6,3.2,1.6,4.4c1.1,1.1,2.7,1.9,3.2,3.4c0.2,0.6,0.1,1.3,0.3,1.9c0,0.1,0,0.2,0.1,0.2l-0.1,0.1c-2.6,3.3-4,7.4-4,11.7
	c0.1,8.4,5.6,15.8,13.6,18.3v0.6c0.1,2.4-0.9,4.8-2.6,6.4l-17.2,6.9c0,0-10.4-1.2-14.1,13.9c-0.6,2.5-0.8,5.1-0.6,7.7
	c0.1,2.3-0.2,6.3-2.8,11.5c-4.3,8.3-3.3,27.4,5.4,29.3c8.2,1.8,11.4,1,11.7,1v0.3c-0.1,3.6-1.4,34.5-6.2,38.3c-1.3,1-1.1,1.7,0,2.2
	c0,0,0,0.2,0,0.6c-0.1,2.3-0.9,10.9-4,15.8c-3.7,5.7-3.3,38.4-3.3,38.4l-2.5,19.3c0,0,1.5,11.9,0,14c-1.4,1.9-3.2,46-3.6,55.5h-0.2
	c-1.5,0.1-2.9,0.9-3.7,2.3c-2,3.3-9.1,9.4-9.1,9.4c-1.5,2.2-7.2,4.3-10.3,5.3c-0.4,0.1-0.8,0.3-1.2,0.5c-1.1,0.6-2,1.6-2.6,2.7
	c-0.4,0.7-0.5,1.5-0.3,2.3c0.8,1.9,16.8,3.2,20.9,1.3c3.2-1.5,15.8-3.4,21.1-4.2c2-0.2,3.5-1.8,3.8-3.7c0.1-0.7-0.1-1.3-0.5-1.9l0,0
	c-1-1.2-1.5-4.6-1.8-6.9c0.4-0.2,0.8-0.4,1.2-0.7c-0.4-6.9,0.6-13.8,2.9-20.2c3.9-10.2,5-29.1,4.1-41.4c0,0,11.8-50.7,21.1-55.4l0,0
	c0.1,0.2,4.6,6,5.2,23.8c0.6,18.2,7.1,30.1,7.1,30.1s-2.9,30.8,0,42.4l-3.8,18.2c-0.3-0.2-0.5-0.4-0.5-0.4s0.1,0.5,0.3,1.3l-0.1,0.4
	l0.2,0c0.4,2.3,1.1,6.2,0.8,8.6c-0.2,1.3-0.5,3.1-0.8,4.9c-0.4,2.8-0.5,5.5,1,6.1c2.4,1,16.6,2.3,19-0.8c1.1-1.3,1.4-3.1,0.7-4.7
	c-0.2-0.4-0.4-0.8-0.7-1.2c0,0-3.8-6.2-2.7-10.5c0.2-0.9,0-1.8-0.4-2.5c0.5-6.9,1.6-13.7,3.3-20.4c2.4-9.1,7.5-29.1,3.8-42.2l0,0
	c-0.1-0.5-0.3-1-0.5-1.5c-2.2-7.2-2.9-14.7-2.1-22.1c-1.4-6.4-1.4-12.9,0-19.3c2.3-10.6,3.9-21,3.9-21s1.3-14,0.2-22.6l-0.1-0.6
	l0.6-0.1c0,0-3.3-14.6-4.4-23.8c-0.3-2.2-0.6-5-1-7.9c1.1-0.2,2.1-0.4,3.2-0.8c10.4-3.6,13.7-36.1,13.7-36.1v-10.3
	C618.8,237.1,622.3,221.3,610.1,214.3z M532.4,465.5c-0.3-0.2-0.5-0.3-0.5-0.3l0,0L532.4,465.5z"/>
<path id="Pfad_8312" class="st12" d="M603.9,402c4.5,13-0.8,34.1-3.2,43.5c-1.6,6.8-2.7,13.8-3.2,20.7c-5.5,0.9-11.1,0.8-16.6-0.4
	l4-19.4c-2.8-11.5,0-42.2,0-42.2s-6.4-11.9-7-30c-0.6-17.8-4.9-23.6-5.1-23.8l0,0c-9,4.7-20.5,55.2-20.5,55.2
	c0.9,12.3-0.2,31.1-4,41.3c-2.3,6.5-3.2,13.3-2.8,20.2c-1.5,1.1-3.4,1.4-5.1,1c-5.4-0.9-11.8-5.5-11.8-5.5l2.6-56.9l1-14.2l2.4-19.2
	c0,0-0.4-32.6,3.2-38.3c3.1-4.9,3.8-13.5,3.9-15.7c0-0.2,0-0.4,0-0.6l5.5-6.5c0,0,52.8-4,56.7,0c1,1,1.6,3.2,1.9,6
	c1.1,8.6-0.2,22.5-0.2,22.5s-1.6,10.4-3.8,20.9c-1.4,6.3-1.4,12.9,0,19.2C601,387.4,601.7,394.9,603.9,402L603.9,402z"/>
<path id="Pfad_8313" class="st13" d="M600.6,484.7c-2.4,3.1-16.2,1.8-18.6,0.8c-1.4-0.6-1.3-3.3-0.9-6.1c0.2-1.8,0.6-3.6,0.8-4.9
	c0.4-3.4-1.1-10.3-1.1-10.3s3.1,3.3,3.9,0c0.4-1.3,1.4-2.3,2.7-2.6c1.6-0.5,3.4-0.4,4.9,0.3c2.4,1.1,6.5,3.3,5.8,6.4
	c-1,4.3,2.6,10.5,2.6,10.5c0.3,0.4,0.5,0.8,0.7,1.2C601.9,481.6,601.6,483.4,600.6,484.7z"/>
<path id="Pfad_8314" class="st7" d="M600.6,484.7c-2.4,3.1-16.2,1.8-18.6,0.8c-1.4-0.6-1.3-3.3-0.9-6.1c1.5,0.7,4,1.3,8.2,0.9
	c1-0.1,2-0.1,3-0.1c3,0.1,6,0.1,9-0.2C601.9,481.6,601.6,483.4,600.6,484.7z"/>
<path id="Pfad_8315" class="st7" d="M552.2,405.8c0.9,12.3-0.2,31.1-4,41.3c-2.3,6.5-3.2,13.3-2.8,20.2c-1.5,1.1-3.4,1.4-5.1,1
	c1.1-8,6-42.2,9.1-69.3c2.2-18.7,9.1-36.6,20.1-52l3.3,3.6C563.7,355.3,552.2,405.8,552.2,405.8z"/>
<path id="Pfad_8316" class="st14" d="M594.9,207.7l-2.3,11.3l-11.3,18.9l-13.9-5.9c0,0-18.9-19.8-7-22.6c1.4-0.3,2.8-0.9,3.9-1.8
	c2.1-1.6,3.2-4.2,3.1-6.8c-0.1-2.8-0.8-5.6-1.9-8.1l24.3-7.7c-1,3.2-1.6,6.5-1.7,9.9c-0.2,6.6,2.3,9.9,4.3,11.4
	C593.1,206.9,594,207.4,594.9,207.7z"/>
<path id="Pfad_8317" class="st7" d="M589.8,185c-1,3.2-1.6,6.5-1.7,9.9c-0.4,0.5-0.9,1-1.4,1.5c-5.1,4.9-12.5,6.6-19.2,4.4
	c-0.1-2.8-0.8-5.6-1.9-8.1L589.8,185z"/>
<path id="Pfad_8318" class="st14" d="M592.6,181.9c0,10.6-8.7,19.1-19.2,19.1c-10.6,0-19.1-8.7-19.1-19.2s8.7-19.1,19.2-19.1
	c5.1,0,9.9,2,13.5,5.6C590.6,171.9,592.6,176.8,592.6,181.9z"/>
<path id="Pfad_8319" class="st7" d="M594.9,207.7l-2.3,11.3l-11.3,18.9l-13.9-5.9c0,0-18.9-19.8-7-22.6c1.4-0.3,2.8-0.9,3.9-1.8
	c-2.1,5.9,6.7,18.2,6.7,18.2c1,1.5,3.4,0.6,3.4,0.6c5.7-0.9,16.2-17.3,17.9-20C593.1,206.9,594,207.4,594.9,207.7z"/>
<path id="Pfad_8320" class="st7" d="M605.8,317.3c-3.3,0.8-21.9,4.9-28.9,3.8c-7.7-1.1-22.8-1.9-22.8-1.9s-9.6,0.5-12.5-0.8
	c0-0.2,0-0.4,0-0.6l5.5-6.5c0,0,52.8-4,56.7,0C604.8,312.3,605.4,314.5,605.8,317.3z"/>
<path id="Pfad_8321" class="st3" d="M571,226.3c0,0-9.9-13.8-6.2-19.1l-16.8,6.9c0,0-10.1-1.2-13.8,13.9c-0.6,2.5-0.8,5.1-0.6,7.7
	c0.1,4-0.9,8-2.8,11.5c-4.2,8.3-3.2,27.3,5.3,29.2s11.5,0.9,11.5,0.9s-1.1,34.5-6,38.5s12.5,3,12.5,3s15,0.8,22.8,1.9s29.4-4,29.4-4
	s-3.2-14.5-4.3-23.8s-3.8-28.9-3.8-28.9l19.2-26c0,0,3.4-15.7-8.5-22.7s-16.3-8.7-16.3-8.7s-11.9,19.4-18.1,20.4
	C574.4,226.9,572.1,227.8,571,226.3z"/>
<path id="Pfad_8323" class="st14" d="M576.9,278.7c0,0-20.8-5.1-22.8-9.4s-7.3-14-7.3-14l2.2-3l10.1,7.9c0,0,12.1,9.6,17.7,10.6
	S576.9,278.7,576.9,278.7z"/>
<path id="Pfad_8324" class="st15" d="M576.9,278.7c0,0-20.8-5.1-22.8-9.4s-7.3-14-7.3-14l2.2-3l10.1,7.9c0,0,12.1,9.6,17.7,10.6
	S576.9,278.7,576.9,278.7z"/>
<path id="Pfad_8325" class="st14" d="M594.9,254.2v11.3h-1.8c-9,0-17.8,2.3-25.6,6.6l-3.4,1.9l-0.9,0.5l-5.8-13.2l5.5-4.9h0.3
	c1.3,0.1,7.1,0.6,9.6-0.2c2.3-0.8,5.2-3.3,12.1-1.5c3.4,0.9,6.3,4.7,9.5,3.5L594.9,254.2z"/>
<path id="Pfad_8326" class="st7" d="M613.1,233.7l3.8,4.2v10.3c0,0-3.2,32.4-13.4,36s-28.4-2.1-28.4-2.1s-4.7-12.4-2.5-13.2
	s19.4-5.3,19.4-5.3s-0.2-19,3.5-24.7c0,0-2.5-17.7,6-18.1S613.1,233.7,613.1,233.7z"/>
<path id="Pfad_8327" class="st3" d="M613.7,233.7l3.8,4.2v10.3c0,0-3.2,32.4-13.4,36s-28.4-2.1-28.4-2.1s-4.7-12.4-2.5-13.2
	s19.4-5.3,19.4-5.3s-0.2-19,3.5-24.7c0,0-2.5-17.7,6-18.1S613.7,233.7,613.7,233.7z"/>
<path id="Pfad_8328" class="st7" d="M587.3,190.1c0.2-1.2,0-2.5-0.4-3.7c-0.5-1.2-1.7-1.9-3-1.7c-1.6,0.4-2.3,2.5-3.9,3
	c-1.4,0.3-2.8-0.4-3.4-1.8c-0.5-1.3-0.8-2.7-0.7-4.1v-4.7c0-1.7-0.1-3.6-1.1-4.9c-1.3-1.7-4.4-2.4-6.5-2.3c-1.4,0-2.7,0.5-3.7,1.5
	c-1,1-2.4,1.5-3.9,1.4c-1.3-0.2-2.3-1.1-2.7-2.3v-0.1c6.4-8.5,18.5-10.1,26.9-3.7c8.5,6.4,10.1,18.5,3.7,26.9
	c-0.6,0.8-1.3,1.6-2.1,2.3C587,194,587.2,192,587.3,190.1z"/>
<path id="Pfad_8329" class="st16" d="M560.8,172.1c-1.3-0.2-2.3-1.1-2.7-2.3c-0.2-0.6-0.1-1.3-0.3-1.9c-0.4-1.5-2-2.3-3.1-3.4
	c-2.1-2.3-2-6-0.5-8.7c1.2-2.2,3.6-4,6-3.6c1.5,0.3,2.8,1.4,4.4,1.4s2.8-0.7,4.2-1.4c3.3-1.5,6.9-1.8,10.4-0.9
	c1.1,0.2,2.1,0.7,2.9,1.4c0.5,0.7,1.1,1.4,1.5,2.1c1.8,2.2,4.9,2.7,7.7,3.2s6,1.6,6.9,4.3c0.6,1.8,0,3.7-0.3,5.6
	c-0.1,0.4-0.1,0.8,0.1,1.1c0.4,0.7,1.5,0.4,2.4,0.6c1.6,0.3,2,2.4,2,4c0.1,1.9,0.1,3.7,0.2,5.6c0.2,1.7-0.5,3.5-1.8,4.7l-6.2,7.5
	c-2.8,3.3-5.7,7.2-5.1,11.5c-1.3,0.6-2.9-0.5-3.3-1.9c-0.3-1.4-0.2-2.9,0.2-4.2c0.5-2.4,0.8-4.9,1-7.4c0.2-1.2,0-2.5-0.4-3.7
	c-0.5-1.2-1.7-1.9-3-1.7c-1.6,0.4-2.3,2.5-3.9,3c-1.4,0.3-2.8-0.4-3.4-1.8c-0.5-1.3-0.8-2.7-0.7-4.1v-4.7c0-1.7-0.1-3.6-1.1-4.9
	c-1.3-1.7-4.4-2.4-6.5-2.3c-1.4,0-2.7,0.5-3.7,1.5C563.6,171.8,562.2,172.3,560.8,172.1z"/>
<path id="Pfad_8333" class="st7" d="M562.8,257.1c0,0-1.9,13.2,1.5,18.5c-5.3,1.9-11,2.6-16.6,2.3l-1.1-20.7H562.8z"/>
<path id="Pfad_8334" class="st7" d="M564,274l-0.9,0.5l-5.8-13.2l5.5-4.9h0.3C562.9,257.1,561.4,268.5,564,274z"/>
<path id="Pfad_8335" class="st3" d="M562.8,256.5c0,0-1.9,13.2,1.5,18.5c-5.3,1.9-11,2.6-16.6,2.3l-6.6-20.7H562.8z"/>
<path id="Pfad_8336" class="st13" d="M546.4,476.7c-0.2,1.9-1.7,3.5-3.7,3.7c-5.1,0.8-17.5,2.7-20.6,4.2c-4,1.9-19.6,0.6-20.4-1.3
	c-0.2-0.8-0.1-1.6,0.3-2.3c0.5-1.2,1.4-2.1,2.6-2.7c0.4-0.2,0.7-0.4,1.1-0.5c2.9-1,8.5-3.1,10-5.3c0,0,6.9-6.1,8.9-9.4
	c0.8-1.3,2.1-2.2,3.6-2.3c1.7-0.1,3.5,0.8,4.2,4.4c0,0,9,5.2,11.5,0.6c0,0,0.4,7,1.9,8.9l0,0C546.4,475.3,546.6,476,546.4,476.7
	L546.4,476.7z"/>
<path id="Pfad_8337" class="st7" d="M546.4,476.7c-0.2,1.9-1.7,3.5-3.7,3.7c-5.1,0.8-17.5,2.7-20.6,4.2c-4,1.9-19.6,0.6-20.4-1.3
	c-0.2-0.8-0.1-1.6,0.3-2.3c0.5-1.2,1.4-2.1,2.6-2.7c2.6,1.7,8.2,3.3,20.7,1.4c11.9-1.9,17.8-3.7,20.6-4.9l0,0
	C546.4,475.3,546.6,476,546.4,476.7z"/>
<g id="Gruppe_6220" transform="translate(448.134 84.237)" class="st17">
	<path id="Pfad_8338" d="M149.8,84.2L149.8,84.2c0.4-1.5,0.6-2.9,0.6-4.4c-0.1,1.2-0.3,2.3-0.6,3.4
		C149.7,83.5,149.7,83.9,149.8,84.2z"/>
	<path id="Pfad_8339" d="M138.8,101.8c0.3,0.7,0.5,1.4,0.5,2.2c0.1-1-0.1-2.1-0.5-3c-0.5-1.2-1.7-1.9-3-1.7c-1.6,0.4-2.3,2.5-3.9,3
		c-1.4,0.3-2.8-0.4-3.4-1.8c-0.5-1.3-0.8-2.7-0.7-4.1v-4.7c0-1.7-0.1-3.6-1.1-4.9c-1.3-1.7-4.4-2.4-6.5-2.3c-1.4,0-2.7,0.5-3.7,1.5
		c-1,1-2.4,1.5-3.9,1.4c-1.3-0.2-2.3-1.1-2.7-2.3c-0.2-0.6-0.1-1.3-0.3-1.9c-0.4-1.5-2-2.3-3.1-3.4c-1-1.1-1.6-2.5-1.6-4
		c-0.2,1.8,0.4,3.5,1.6,4.8c1.1,1.1,2.6,1.9,3.1,3.4c0.2,0.6,0.1,1.3,0.3,1.9c0.4,1.2,1.4,2.1,2.7,2.3c1.4,0.2,2.9-0.4,3.9-1.4
		c1-0.9,2.3-1.5,3.7-1.5c2-0.1,5.2,0.7,6.5,2.3c1.1,1.3,1.1,3.2,1.1,4.9v4.7c-0.1,1.4,0.1,2.8,0.7,4.1c0.6,1.3,2,2,3.4,1.8
		c1.6-0.5,2.3-2.6,3.9-3C137,99.9,138.3,100.6,138.8,101.8z"/>
	<path id="Pfad_8340" d="M154.2,96.6c-0.3,1-0.9,1.9-1.6,2.6c-2.1,2.5-4.1,5-6.2,7.5c-2.6,3.1-5.4,6.8-5.2,10.8
		c0.2-3.7,2.8-7,5.2-10l6.2-7.5c0.7-0.7,1.3-1.6,1.6-2.6c0.2-0.7,0.2-1.4,0.2-2C154.4,95.8,154.4,96.2,154.2,96.6z"/>
	<path id="Pfad_8341" d="M138,116.2c-0.1-0.3-0.2-0.7-0.2-1c-0.1,0.6,0,1.3,0.2,1.9c0.4,1.4,2,2.5,3.3,1.9c0-0.3-0.1-0.6-0.1-0.8
		C139.9,118.7,138.4,117.6,138,116.2z"/>
</g>
<path id="Pfad_8342" class="st7" d="M523.5,464.9c0,0,2,3.5,9.1,0.4"/>
<path id="Pfad_8343" class="st7" d="M583.9,465.7c0,0,6.2,7.2,13.9,2.4"/>
<path id="Pfad_8347" class="st1" d="M621.9,487.4l20.6-19C642.6,468.4,620.6,473.8,621.9,487.4z"/>
<path id="Pfad_8348" class="st1" d="M622.3,487.5l8.9-26.6C631.2,460.9,614.5,476.3,622.3,487.5z"/>
</svg>
