<?xml version="1.0" encoding="utf-8"?>
<!-- Generator: Adobe Illustrator 25.4.1, SVG Export Plug-In . SVG Version: 6.00 Build 0)  -->
<svg version="1.1" id="Ebene_1" xmlns="http://www.w3.org/2000/svg" xmlns:xlink="http://www.w3.org/1999/xlink" x="0px" y="0px"
	 viewBox="0 0 400 400" style="enable-background:new 0 0 400 400;" xml:space="preserve">
<style type="text/css">
	.st0{fill:#FFFFFF;}
</style>
<g>
	<path class="st0" d="M29.9734993,212.9158478c-1.4985065,0.722702-5.0464058,1.6123047-9.5366058,1.6123047
		c-12.918499,0-19.5712986-8.0986023-19.5712986-18.7407074c0-12.7533875,9.0923004-19.7958984,20.4037991-19.7958984
		c4.3783989,0,7.7051067,0.8325043,9.2017002,1.6650085l-1.7730007,6.6528931
		c-1.6630993-0.722702-4.0473995-1.3852997-7.0995941-1.3852997c-6.6494055,0-11.8638058,4.0458984-11.8638058,12.3603973
		c0,7.489212,4.4370003,12.2006073,11.9204006,12.2006073c2.6075001,0,5.3799-0.4994965,7.096199-1.2187042L29.9734993,212.9158478z
		"/>
	<path class="st0" d="M54.5305939,207.3719482c0,2.5541992,0.1099052,5.0483093,0.4429054,6.5429077h-7.5952072
		l-0.4995003-2.7168121h-0.1646004c-1.7748985,2.1646118-4.5472984,3.3301086-7.7621994,3.3301086
		c-5.4892006,0-8.7606983-3.9927063-8.7606983-8.3218079c0-7.0389862,6.3197994-10.3656921,15.9116001-10.3656921v-0.3330078
		c0-1.4984894-0.7759018-3.5497894-4.9351006-3.5497894c-2.7700005,0-5.7103996,0.9423981-7.4818993,2.0513l-1.5552025-5.4307098
		c1.8867035-1.0522003,5.6011009-2.4408875,10.5357018-2.4408875c9.0375977,0,11.8642006,5.3246918,11.8642006,11.7543945
		V207.3719482z M46.3811913,201.1087494c-4.4375,0-7.873497,1.0522003-7.873497,4.2685089
		c0,2.1645966,1.4418983,3.2167969,3.3261986,3.2167969c2.0512009,0,3.8260994-1.3886108,4.3807983-3.1069031
		c0.1113014-0.4429016,0.1665001-0.9423981,0.1665001-1.4380035V201.1087494z"/>
	<path class="st0" d="M58.4666939,195.7308502c0-3.9922028-0.0567017-6.5997009-0.2231941-8.9272919h7.2089996l0.3314896,4.987793
		h0.2212067c1.3853073-3.9888,4.658699-5.6537933,7.3188934-5.6537933c0.7759018,0,1.1640015,0.0565948,1.7749023,0.1664886
		v7.9282074c-0.6660004-0.1098022-1.3320007-0.2230988-2.2743988-0.2230988c-3.103096,0-5.2109985,1.6649933-5.7670898,4.2723999
		c-0.1099091,0.5527954-0.1646118,1.2187958-0.1646118,1.8847961v13.7485046h-8.4261971V195.7308502z"/>
	<path class="st0" d="M101.9876938,209.9793549c0,5.2108917-1.0541916,9.4799957-4.1591949,12.1972961
		c-2.9385071,2.550705-6.9859085,3.3260956-10.978508,3.3260956c-3.603096,0-7.3189011-0.718689-9.7564011-2.0507965
		l1.6616058-6.4300995c1.7197952,0.9956055,4.6581955,2.0478058,7.8730927,2.0478058
		c3.9927063,0,7.0410004-2.1045074,7.0410004-7.1528015v-1.7144012h-0.1098938
		c-1.6078949,2.217804-4.2138062,3.4931946-7.3188019,3.4931946c-6.7095032,0-11.4780045-5.4346008-11.4780045-13.1963043
		c0-8.7606964,5.6010056-14.305191,12.3105011-14.305191c3.7129059,0,6.0419998,1.6083984,7.4287033,3.8827972h0.1118011
		l0.2763977-3.2733917h7.3189011c-0.1113968,1.7748871-0.221199,4.0453949-0.221199,8.094696V209.9793549z M93.5593948,197.8352509
		c0-0.4960022-0.0566025-1.0522003-0.1665039-1.5516968c-0.6092987-2.217804-2.2173004-3.7124023-4.544899-3.7124023
		c-3.1069031,0-5.5444031,2.7700043-5.5444031,7.7050934c0,4.0488129,1.994606,7.2089081,5.4878006,7.2089081
		c2.2177048,0,3.9355011-1.441803,4.4902039-3.3833008c0.221199-0.6660004,0.2778015-1.5512085,0.2778015-2.2738953V197.8352509z"/>
	<path class="st0" d="M132.755188,200.0530548c0,9.9263-7.0429001,14.4750977-14.3050995,14.4750977
		c-7.928299,0-14.0268936-5.214798-14.0268936-13.9756012c0-8.8139038,5.7655945-14.4149933,14.5263977-14.4149933
		C127.2107925,186.137558,132.755188,191.8479462,132.755188,200.0530548z M113.1272888,200.3328552
		c0,4.6548004,1.9413986,8.147995,5.5439987,8.147995c3.3286057,0,5.379303-3.2700958,5.379303-8.2046051
		c0-3.992691-1.5512009-8.0952911-5.379303-8.0952911C114.6804962,192.180954,113.1272888,196.3401489,113.1272888,200.3328552z"/>
	<path class="st0" d="M146.8440857,176.5442505v37.3706055h-4.8778992v-37.3706055H146.8440857z"/>
	<path class="st0" d="M152.8840942,194.3421478c0-2.8271942-0.0545959-5.0444946-0.2215881-7.2621918h4.3241882l0.2782898,4.4349976
		h0.1113129c1.3300934-2.4936066,4.4355927-4.9878082,8.8700867-4.9878082c3.7149048,0,9.4804993,2.217804,9.4804993,11.421402
		v15.9663086h-4.8778992v-15.4668121c0-4.325592-1.6083984-7.9281921-6.2108917-7.9281921
		c-3.1591949,0-5.6533966,2.2704926-6.5411072,4.987793c-0.2215881,0.6094055-0.3329926,1.4419098-0.3329926,2.2743988v16.1328125
		h-4.8798981V194.3421478z"/>
	<path class="st0" d="M186.5355072,180.6502533v6.4297028h6.9853821v3.7162933h-6.9853821v14.4712067
		c0,3.3265991,0.9423828,5.2113953,3.6591797,5.2113953c1.3320007,0,2.1083984-0.1098938,2.8291016-0.3330078l0.2217102,3.7163086
		c-0.9424133,0.3291016-2.4395142,0.6660004-4.3262024,0.6660004c-2.2744141,0-4.1006012-0.7798004-5.2656097-2.0547028
		c-1.3300934-1.4951019-1.8867035-3.8793945-1.8867035-7.039505v-14.6376953h-4.1552887v-3.7162933h4.1552887v-4.9883118
		L186.5355072,180.6502533z"/>
	<path class="st0" d="M198.6218872,201.3850555c0.1114044,6.5997009,4.2696075,9.3134918,9.2051086,9.3134918
		c3.4921875,0,5.6542969-0.605896,7.4277954-1.3851929l0.8905945,3.493103
		c-1.722702,0.7753906-4.7167969,1.7216949-8.9843903,1.7216949c-8.2617035,0-13.1968079-5.4911957-13.1968079-13.585907
		c0-8.0951996,4.769104-14.4151001,12.585495-14.4151001c8.8164062,0,11.0898132,7.6484985,11.0898132,12.5835114
		c0,0.9990997-0.0566101,1.7216949-0.1660004,2.2743988H198.6218872z M212.92659,197.8919525
		c0.0547028-3.0503082-1.2754059-7.8715973-6.7655945-7.8715973c-4.9883118,0-7.0957031,4.4916992-7.4824066,7.8715973H212.92659z"
		/>
	<path class="st0" d="M220.9050903,195.4510498c0-3.160202-0.0545959-5.8769989-0.2207031-8.3710938h4.2696075l0.2206879,5.3241882
		h0.1660004c1.2207031-3.6024933,4.2168121-5.8769989,7.4863129-5.8769989c0.5,0,0.8866882,0.053299,1.3319855,0.1099091v4.6020966
		c-0.5-0.1098938-1-0.1098938-1.6660004-0.1098938c-3.4354858,0-5.8768921,2.550293-6.5409851,6.2099915
		c-0.1113129,0.6660004-0.1640015,1.4951019-0.1640015,2.2709045v14.3047028h-4.8829041V195.4510498z"/>
	<path class="st0" d="M236.4851837,194.3421478c0-2.8271942-0.0565948-5.0444946-0.2225952-7.2621918h4.3260956l0.2754059,4.4349976
		h0.1114044c1.3320007-2.4936066,4.4334869-4.9878082,8.8730011-4.9878082c3.7128906,0,9.480484,2.217804,9.480484,11.421402
		v15.9663086h-4.8808899v-15.4668121c0-4.325592-1.6074066-7.9281921-6.2089996-7.9281921
		c-3.1600952,0-5.6542969,2.2704926-6.5410004,4.987793c-0.2225952,0.6094055-0.3339996,1.4419098-0.3339996,2.2743988v16.1328125
		h-4.8789062V194.3421478z"/>
	<path class="st0" d="M283.3289795,207.4851532c0,2.3276978,0.1152039,4.5981903,0.3905945,6.4297028h-4.3788757
		l-0.3867188-3.3794098h-0.1659851c-1.4981079,2.1045074-4.3809204,3.9927063-8.2070923,3.9927063
		c-5.4355164,0-8.2051086-3.8296051-8.2051086-7.7089996c0-6.4862976,5.7676086-10.0361023,16.1329041-9.9795074v-0.5560913
		c0-2.1611023-0.6094055-6.206604-6.0997009-6.1533051c-2.5487976,0-5.1562195,0.7187042-7.0410156,1.9980011l-1.1073914-3.2733917
		c2.2167969-1.3853149,5.4862976-2.327713,8.8710938-2.327713c8.2030945,0,10.1972961,5.6011047,10.1972961,10.9219055V207.4851532z
		 M278.617981,200.2195435c-5.320282-0.109787-11.3652039,0.8325043-11.3652039,6.0469055
		c0,3.2134094,2.1094055,4.655304,4.5487976,4.655304c3.546936,0,5.8203125-2.217804,6.5977173-4.4922028
		c0.1659851-0.5527954,0.218689-1.108902,0.218689-1.5518036V200.2195435z"/>
	<path class="st0" d="M294.0847778,180.6502533v6.4297028h6.9864197v3.7162933h-6.9864197v14.4712067
		c0,3.3265991,0.9434204,5.2113953,3.6602173,5.2113953c1.3320007,0,2.1073914-0.1098938,2.8262024-0.3330078l0.2245789,3.7163086
		c-0.9433899,0.3291016-2.4375,0.6660004-4.3262024,0.6660004c-2.2714844,0-4.101593-0.7798004-5.2637024-2.0547028
		c-1.3319702-1.4951019-1.8885803-3.8793945-1.8885803-7.039505v-14.6376953h-4.156311v-3.7162933h4.156311v-4.9883118
		L294.0847778,180.6502533z"/>
	<path class="st0" d="M309.219574,179.5413513c0,1.6611023-1.1620789,2.9931946-3.1034851,2.9931946
		c-1.7753906,0-2.9375-1.3320923-2.9375-2.9931946c0-1.6616058,1.218689-3.050293,3.0469055-3.050293
		C308.0007935,176.4910583,309.219574,177.8196564,309.219574,179.5413513z M303.7879944,213.914856v-26.8348999h4.8789062
		v26.8348999H303.7879944z"/>
	<path class="st0" d="M338.2722778,200.2762451c0,9.9262085-6.9335938,14.2519073-13.3632812,14.2519073
		c-7.2050171,0-12.8632202-5.324707-12.8632202-13.8090973c0-8.9277039,5.9336243-14.1919098,13.3066101-14.1919098
		C333.0613708,186.5271454,338.2722778,192.1282501,338.2722778,200.2762451z M317.0339966,200.5525513
		c0,5.8769989,3.3300781,10.3125,8.0997009,10.3125c4.6542969,0,8.1463928-4.3789062,8.1463928-10.4223022
		c0-4.5453949-2.2695007-10.2559052-8.0371094-10.2559052C319.532074,190.1868439,317.0339966,195.5076447,317.0339966,200.5525513z
		"/>
	<path class="st0" d="M341.649292,194.3421478c0-2.8271942-0.054718-5.0444946-0.2207031-7.2621918h4.3262024l0.2752991,4.4349976
		h0.1094055c1.3320007-2.4936066,4.4394836-4.9878082,8.875-4.9878082c3.7128906,0,9.4804993,2.217804,9.4804993,11.421402
		v15.9663086h-4.8789062v-15.4668121c0-4.325592-1.6073914-7.9281921-6.2128906-7.9281921
		c-3.156311,0-5.6543274,2.2704926-6.5410156,4.987793c-0.2226868,0.6094055-0.3320923,1.4419098-0.3320923,2.2743988v16.1328125
		h-4.8807983V194.3421478z"/>
	<path class="st0" d="M388.4988708,207.4851532c0,2.3276978,0.1094055,4.5981903,0.3867188,6.4297028h-4.3789062
		l-0.3866882-3.3794098h-0.1660156c-1.4981079,2.1045074-4.382782,3.9927063-8.2089844,3.9927063
		c-5.4336243,0-8.203125-3.8296051-8.203125-7.7089996c0-6.4862976,5.7675171-10.0361023,16.1328125-9.9795074v-0.5560913
		c0-2.1611023-0.6094055-6.206604-6.0976868-6.1533051c-2.5508118,0-5.1582031,0.7187042-7.0429993,1.9980011l-1.1074219-3.2733917
		c2.2167969-1.3853149,5.4864197-2.327713,8.8692017-2.327713c8.2050171,0,10.2030945,5.6011047,10.2030945,10.9219055V207.4851532z
		 M383.7839966,200.2195435c-5.3203125-0.109787-11.3652039,0.8325043-11.3652039,6.0469055
		c0,3.2134094,2.1094055,4.655304,4.5487976,4.655304c3.5469055,0,5.8204041-2.217804,6.5976868-4.4922028
		c0.1660156-0.5527954,0.2187195-1.108902,0.2187195-1.5518036V200.2195435z"/>
	<path class="st0" d="M393.5964966,174.5496521h4.8828735v39.3652039h-4.8828735V174.5496521z"/>
</g>
</svg>
