<?xml version="1.0" encoding="utf-8"?>
<!-- Generator: Adobe Illustrator 25.2.2, SVG Export Plug-In . SVG Version: 6.00 Build 0)  -->
<svg version="1.1" id="b15325d2-ef49-41bb-b39b-b88ff27f55f0"
	 xmlns="http://www.w3.org/2000/svg" xmlns:xlink="http://www.w3.org/1999/xlink" x="0px" y="0px" viewBox="0 0 703.7 582.7"
	 style="enable-background:new 0 0 703.7 582.7;" xml:space="preserve">
<style type="text/css">
	.st0{opacity:0.1;fill:#FFFFFF;}
	.st1{fill:#FF6900;}
	.st2{opacity:0.1;enable-background:new    ;}
	.st3{opacity:5.000000e-02;enable-background:new    ;}
	.st4{fill:#9292A0;}
	.st5{fill:#CCCBCB;}
	.st6{fill:#FFB9B9;}
	.st7{fill:#65617D;}
	.st8{fill:#7C5C5C;}
	.st9{opacity:0.2;enable-background:new    ;}
	.st10{fill:#4C4B5C;}
	.st11{fill:#D0CDE1;}
	.st12{fill:#7493CD;}
	.st13{fill:#E6E6E6;}
	.st14{fill:#3F3D56;}
	.st15{fill:none;stroke:#E6E6E8;}
	.st16{fill:#F2F2F2;}
</style>
<path class="st0" d="M92.8,374.1c-3-2.5-5.9-5.4-6.8-9.1c-0.9-4,0.6-8.1,2.2-11.8c13.7-32.7,33.4-65.9,28.2-101
	c-2.5-17-10.7-32.6-15.9-49s-7.2-35.4,2.2-49.9c11.4-17.7,34.7-22.1,52.8-32.8c11.8-7,21.7-16.9,33.1-24.5
	c11.4-7.7,25.5-13.2,38.8-9.7c19.2,5,29.4,26.1,46.8,35.7c17.8,9.8,39.9,5.9,59-1.1s37.5-16.9,57.7-18.7c22.3-2,44.3,6.2,66.6,7.8
	c20.4,1.5,40.8-2.6,61.2-1.7c20.4,0.8,42.4,8,53,25.5c13.8,22.8,2.9,52.4,8.1,78.5c4.8,24.2,23.1,43.5,32.2,66.5
	c16.5,41.3-0.1,91.5-34,120.3c-33.9,28.8-81.8,37.7-125.7,30.2c-19.8-3.4-39.2-9.8-59.2-9.7c-53.7,0.3-100,46.7-153.5,42.8
	c-34-2.5-60.8-24.8-83-48.9C137.5,392.5,114,391.8,92.8,374.1z"/>
<g id="Gruppe_6168" transform="translate(773.607 418.686)">
	<path id="Pfad_8126" class="st1" d="M-195.1-15.7l-75.7,15.5l-1.7-0.2L-339-7.1v-84.3l81.4-13.8l59.1,6.9l0,0.4l0,0.2L-195.1-15.7z
		"/>
	<path id="Pfad_8127" class="st2" d="M-195.1-15.7l-75.7,15.5l-1.7-0.2v-86.4l74-11.1L-195.1-15.7z"/>
	<path id="Pfad_8128" class="st3" d="M-198.5-97.7L-198.5-97.7l-74,10.9l-66.5-4.6l81.4-13.8l59.1,6.9l0,0.4L-198.5-97.7z"/>
</g>
<path id="Pfad_8129" class="st4" d="M606.1,418.4l-50.4,10.3l-1.1-0.1l-44.3-4.5V368l54.2-9.2l39.3,4.6l0,0.2v0.1L606.1,418.4z"/>
<path id="Pfad_8130" class="st2" d="M606.1,418.4l-50.4,10.3l-1.1-0.1V371l49.3-7.4L606.1,418.4z"/>
<path id="Pfad_8131" class="st3" d="M603.8,363.8L603.8,363.8l-49.3,7.3l-44.3-3.1l54.2-9.2l39.3,4.6l0,0.2L603.8,363.8z"/>
<rect id="Rechteck_2688" x="169.5" y="191.6" class="st4" width="102.1" height="82.3"/>
<rect id="Rechteck_2689" x="211.4" y="250.5" class="st5" width="17.3" height="23.4"/>
<path id="Pfad_7592" class="st5" d="M105,444.5c0,0-16,5-12.6,10.9c2.2,3.6,5.4,6.6,9.2,8.5c0,0,3.3,13.7,12.6,13.7
	c4.6,0,6.2-2.6,6.6-5.3c0.4-2.7-0.4-5.3-2.2-7.3c-2.3-2.7-2.7-4-1.8-5.4C118,457.5,105,444.5,105,444.5z"/>
<path id="Pfad_7589" class="st6" d="M130.6,145.6l-4.5,22.3l20.8,15.6l9.7-29L130.6,145.6z"/>
<circle id="Ellipse_8" class="st6" cx="147.3" cy="146" r="20.1"/>
<path id="Pfad_7591" class="st5" d="M166.1,457.9c-0.9,1.7-7.1,17.1-1.4,18.6c4.3,1,8.7,0.8,12.9-0.7c0,0,11.4,3.6,18.4-1
	c3.3-3.3,2.5-6.2,1-8.4c-1.6-2.1-4.1-3.5-6.7-3.6c-3.6-0.3-4.7-0.9-5.1-2.5C184.5,457.9,166.1,457.9,166.1,457.9z"/>
<path id="Pfad_7590" class="st7" d="M103.8,297.9c0.1,6.5,28.3,78.5,24.4,87.9c-6.2,6.3-19.4,39.9-25.1,48.8
	c-0.7,0-4.5,11.1-4.5,11.1s8.9,14.1,18.6,8.2c12.1-28.6,42.5-44.5,43.1-81.7c1.5,11.8,5.8,87.2,5.8,87.2s-0.8,0.4,17.9,2.1
	c2.9-43.8,14.8-118.3-11.8-165.1C164,292.7,103.8,297.9,103.8,297.9z"/>
<path id="Pfad_7593" class="st1" d="M175.9,300.1c0,0-3,5.9-14.9,3.7s-58.7,0-58.7,0s2.6-53.1-3.3-85s17.5-50.1,17.5-50.1l7.4-7.4
	c7.4-0.7,23.1,22.3,23.1,22.3c5.2,0.9,10,22.8,14.1,43.6c0.2,1.2,0.5,2.4,0.7,3.5c1.9,9.7,4.5,20.5,6.1,30.1c0.1,0.7,0.2,1.4,0.3,2
	C170.1,275.3,172.6,287.8,175.9,300.1L175.9,300.1z"/>
<path id="Pfad_7594" class="st8" d="M123.8,133.5c0,0-3.7-8.2,6-12c0,0,8.2-13.5,24.7-4.5c0,0,11.2,4.5,11.2,16.5s3.7,14.2,3.7,14.2
	s-5.6-5.7-7.1-10.2s-13.2-5.5-17.7-1s-15.7,3.7-15.7,3.7l0.7,16.5c0,0-3.7-9.7-5.2-9.7S121.6,133.5,123.8,133.5z"/>
<path id="Pfad_7595" class="st9" d="M167.9,260.7c-17.7-9.6-46.4-30.8-55.7-42.2c-12.2-15.1,1.1-26.5,1.1-26.5
	c15.1-9.5,33.1,23.1,33.1,23.1l14.6,11.9c0.2,1.2,0.5,2.4,0.7,3.5C163.7,240.3,166.3,251.1,167.9,260.7z"/>
<path id="Pfad_7596" class="st6" d="M189.4,273c0,0,26.3,7.6,30.2-4.6s-21.2-11-21.2-11l-8.3-0.8L189.4,273z"/>
<path id="Pfad_7597" class="st1" d="M109.9,187.2c0,0-13.3,11.4-1.1,26.5s38.2,49.1,38.2,49.1l34.8,12.5l10.3-0.2l3.5-18.2
	L173,246.2l-11.6-19.5l-14.1-20C147.4,206.7,125,177.6,109.9,187.2z"/>
<path id="Pfad_7598" class="st9" d="M158.4,325.1l2.3,54.4l-5.9-54.4H158.4z"/>
<path id="Pfad_7606" class="st5" d="M442.7,426.8c-2.3,1.1-4.3-5.5-6.3-3.6c-5.5,5.4-18.7,4.2-18.7,4.2c-1.8-0.6-2.8-2.5-2.2-4.3
	c0-0.1,0-0.1,0.1-0.2l0,0c0.4-1.1,1.3-1.9,2.4-2.1l5.9-1.5l9.2-16.2l10-1.3l0.3,0.4c3.9,6.3,4.9,14,2.8,21.2
	C445.2,426.1,444.1,426.2,442.7,426.8z"/>
<path id="Pfad_7607" class="st5" d="M376.6,426.8c-2.3,1.1-4.3-5.5-6.3-3.6c-5.5,5.4-18.7,4.2-18.7,4.2c-1.8-0.6-2.8-2.5-2.2-4.3
	c0-0.1,0-0.1,0.1-0.2l0,0c0.4-1.1,1.3-1.9,2.4-2.1l5.9-1.5l9.2-16.2l10-1.3l0.3,0.4c3.9,6.3,4.9,14,2.8,21.2
	C379.1,426.1,377.9,426.2,376.6,426.8z"/>
<path id="Pfad_7601" class="st10" d="M383.4,151h43.5v-21.6c0-5.8-2.3-11.5-6.4-15.6c-4-4.1-9.6-6.5-15.4-6.5
	c-11.9,0-21.6,9.6-21.8,21.5c0,0.2,0,0.4,0,0.6L383.4,151z"/>
<path id="Pfad_7602" class="st7" d="M445.1,405.3l-13.9-1.6l-21.5-112.3l-29.6,112.8l-15.1,0.5L379,265.3l0.7-31.2l42.6-13.5
	C441.4,246.4,451.9,316.2,445.1,405.3z"/>
<circle id="Ellipse_9" class="st6" cx="401.3" cy="130.3" r="16.4"/>
<path id="Pfad_7603" class="st6" d="M417.8,159.9l-27.8,7.3c4.7-9,6.2-17.4,3.7-25.1l19.6-3.2C411.9,146.3,413.6,153.8,417.8,159.9
	L417.8,159.9z"/>
<path id="Pfad_7604" class="st11" d="M427.1,226.8c-15.6,9.9-33.8,21.3-47.2,10.3c0.3-5.1,0.3-10.1,0-15.2
	c-0.5-5.7-1.3-11.3-2.3-16.9c-5.1-4.5-6.9-17.4,0-37.2c0.9-2.6,2.9-4.6,5.5-5.4l10.6-3.6c4.7,3.9,12.4,1.6,21.4-3.6l10.5,2.7
	l4.6,34.2C423.5,201.7,427.3,215.2,427.1,226.8z"/>
<path id="Pfad_7605" class="st6" d="M451,229l-12.3,16.4c-2,2.6-5.7,3.2-8.4,1.3l0,0c-2.8-1.9-3.4-5.8-1.5-8.5
	c0.3-0.4,0.6-0.7,1-1.1l14.5-12.8L451,229z"/>
<path id="Pfad_7608" class="st10" d="M420.6,116.6l-4.1,13.2l-35.8-0.6c0.3-12.2,10.5-21.8,22.7-21.5
	C410.2,107.8,416.5,111.1,420.6,116.6L420.6,116.6z"/>
<path id="Pfad_7609" class="st11" d="M443.5,240.3l-7.1-9.5l10.8-14.6c0,0-11.7-14.8-18.4-28.2s-4.7-30.9-4.7-30.9l0,0
	c12.7,2.3,23.1,22.9,23.1,22.9l16.9,36.2L443.5,240.3z"/>
<path id="Pfad_7605-2" class="st6" d="M371.1,251.1l1.6,17.3c0.3,3-2,5.7-5,6c-0.4,0-0.9,0-1.3,0l0,0c-2.9-0.4-5-3.1-4.7-6.1
	l2.1-18.4L371.1,251.1z"/>
<path id="Pfad_7600" class="st11" d="M361.5,259.7c0,0,0.7-39.8,2.1-67.4s16.1-28.8,16.1-28.8l-5.6,59.8l-1.2,36.3H361.5z"/>
<rect id="Rechteck_2690" x="184.6" y="124.9" class="st1" width="81.3" height="66.7"/>
<rect id="Rechteck_2691" x="218.1" y="172.2" class="st5" width="14.3" height="19.4"/>
<g id="Gruppe_6171" transform="translate(865.686 430.396)">
	<g id="Gruppe_6170" transform="translate(3.218 3.575)">
		<path id="Pfad_7635" class="st12" d="M-316.5-67.9h-19.3l-2.9-37.2h25L-316.5-67.9z"/>
		<rect id="Rechteck_2629" x="-339" y="-90.1" class="st13" width="25.7" height="5.7"/>
	</g>
	<path id="Pfad_7636" class="st14" d="M-309-103.7h-4.3l-0.5-1.4h-19.1l-0.5,1.4h-4.3l-1.4,4.3h31.5L-309-103.7z"/>
</g>
<line id="Linie_49" class="st15" x1="92.4" y1="477.6" x2="321.8" y2="477.6"/>
<path id="Pfad_8181" class="st13" d="M623.4,352.7c-7.1,2.5-14.9,1.1-20.8-3.7c-7.3-6.1-9.5-16.2-11.4-25.5l-5.5-27.5l11.5,7.9
	c8.3,5.7,16.7,11.6,22.4,19.8c5.7,8.2,8.2,19.5,3.6,28.4"/>
<path id="Pfad_8182" class="st16" d="M622.4,386c1.2-8.5,2.4-17,1.5-25.6c-0.7-7.6-3-15-7.8-21.1c-2.5-3.2-5.6-6-9-8.2
	c-0.9-0.6-1.7,0.9-0.8,1.4c6,3.8,10.6,9.4,13.2,15.9c2.9,7.3,3.3,15.3,2.8,23c-0.3,4.7-0.9,9.4-1.6,14c-0.1,0.4,0.1,0.9,0.6,1
	C621.8,386.7,622.3,386.5,622.4,386L622.4,386z"/>
<path id="Pfad_8183" class="st13" d="M611.2,371c-3,4.6-8.3,7.3-13.8,7.1c-7-0.3-12.8-5.2-18-9.8l-15.5-13.7l10.3-0.5
	c7.4-0.4,14.9-0.7,22,1.6s13.5,7.7,14.8,15"/>
<path id="Pfad_8184" class="st16" d="M625.7,390.9c-5.6-9.9-12.1-20.9-23.7-24.4c-3.2-1-6.6-1.3-10-1c-1.1,0.1-0.8,1.7,0.3,1.6
	c5.6-0.5,11.2,1,15.9,4.2c4.4,3.2,8.1,7.2,10.9,11.8c1.8,2.8,3.4,5.6,5,8.5C624.7,392.5,626.2,391.8,625.7,390.9z"/>
<path id="Pfad_8185" class="st16" d="M634.6,401.3c-0.4-4.5-3.2-8.3-7.3-10v-5.7h-9.6v5.9c-3.9,1.8-6.6,5.6-6.9,9.9l-2.3,26.2h28.4
	L634.6,401.3z"/>
</svg>
